<mxfile host="app.diagrams.net" modified="2025-01-01T12:00:00.000Z" agent="FlexPay" version="24.7.17" etag="security" type="device">
  <diagram name="Security-Architecture" id="security_architecture">
    <mxGraphModel dx="1600" dy="900" grid="0" gridSize="10" guides="1" tooltips="1" connect="1" arrows="1" fold="1" page="1" pageScale="1" pageWidth="1600" pageHeight="1200" background="light-dark(#222326, #121212)" math="0" shadow="0">
      <root>
        <mxCell id="0" />
        <mxCell id="1" parent="0" />

        <!-- Title -->
        <mxCell id="title" value="FlexPay - Security Architecture (Zero Trust)" style="text;html=1;strokeColor=none;fillColor=none;align=center;verticalAlign=middle;whiteSpace=wrap;rounded=0;fontSize=22;fontStyle=1;sketch=1;curveFitting=1;jiggle=2;fontColor=#FFD966;" vertex="1" parent="1">
          <mxGeometry x="500" y="20" width="600" height="40" as="geometry" />
        </mxCell>

        <!-- Perimeter Security -->
        <mxCell id="perimeter_layer" value="" style="rounded=1;whiteSpace=wrap;html=1;fillColor=#ffebee;strokeColor=#f44336;strokeWidth=2;dashed=1;" vertex="1" parent="1">
          <mxGeometry x="100" y="80" width="1400" height="120" as="geometry" />
        </mxCell>

        <mxCell id="perimeter_label" value="&lt;b&gt;Perimeter Security&lt;/b&gt;" style="text;html=1;strokeColor=none;fillColor=none;align=left;verticalAlign=top;whiteSpace=wrap;rounded=0;fontSize=14;fontStyle=1;fontColor=#FFD966;" vertex="1" parent="1">
          <mxGeometry x="110" y="90" width="200" height="20" as="geometry" />
        </mxCell>

        <mxCell id="cloudflare" value="&lt;b&gt;Cloudflare&lt;/b&gt;&lt;br/&gt;DDoS Protection&lt;br/&gt;Bot Management" style="rounded=1;whiteSpace=wrap;html=1;fillColor=#f44336;fontColor=#ffffff;align=center;" vertex="1" parent="1">
          <mxGeometry x="150" y="130" width="120" height="50" as="geometry" />
        </mxCell>

        <mxCell id="waf" value="&lt;b&gt;AWS WAF&lt;/b&gt;&lt;br/&gt;OWASP Top 10&lt;br/&gt;Custom Rules" style="rounded=1;whiteSpace=wrap;html=1;fillColor=#f44336;fontColor=#ffffff;align=center;" vertex="1" parent="1">
          <mxGeometry x="300" y="130" width="120" height="50" as="geometry" />
        </mxCell>

        <mxCell id="shield" value="&lt;b&gt;AWS Shield&lt;/b&gt;&lt;br/&gt;Advanced DDoS&lt;br/&gt;24/7 Support" style="rounded=1;whiteSpace=wrap;html=1;fillColor=#f44336;fontColor=#ffffff;align=center;" vertex="1" parent="1">
          <mxGeometry x="450" y="130" width="120" height="50" as="geometry" />
        </mxCell>

        <mxCell id="acm" value="&lt;b&gt;ACM&lt;/b&gt;&lt;br/&gt;SSL/TLS Certs&lt;br/&gt;Auto renewal" style="rounded=1;whiteSpace=wrap;html=1;fillColor=#f44336;fontColor=#ffffff;align=center;" vertex="1" parent="1">
          <mxGeometry x="600" y="130" width="120" height="50" as="geometry" />
        </mxCell>

        <!-- Identity & Access -->
        <mxCell id="identity_layer" value="" style="rounded=1;whiteSpace=wrap;html=1;fillColor=#e3f2fd;strokeColor=#2196f3;strokeWidth=2;dashed=1;" vertex="1" parent="1">
          <mxGeometry x="100" y="220" width="1400" height="150" as="geometry" />
        </mxCell>

        <mxCell id="identity_label" value="&lt;b&gt;Identity &amp; Access Management&lt;/b&gt;" style="text;html=1;strokeColor=none;fillColor=none;align=left;verticalAlign=top;whiteSpace=wrap;rounded=0;fontSize=14;fontStyle=1;fontColor=#FFD966;" vertex="1" parent="1">
          <mxGeometry x="110" y="230" width="300" height="20" as="geometry" />
        </mxCell>

        <mxCell id="cognito" value="&lt;b&gt;AWS Cognito&lt;/b&gt;&lt;br/&gt;User pools&lt;br/&gt;MFA, SSO" style="rounded=1;whiteSpace=wrap;html=1;fillColor=#2196f3;fontColor=#ffffff;align=center;" vertex="1" parent="1">
          <mxGeometry x="150" y="270" width="120" height="60" as="geometry" />
        </mxCell>

        <mxCell id="iam" value="&lt;b&gt;AWS IAM&lt;/b&gt;&lt;br/&gt;Service roles&lt;br/&gt;Least privilege" style="rounded=1;whiteSpace=wrap;html=1;fillColor=#2196f3;fontColor=#ffffff;align=center;" vertex="1" parent="1">
          <mxGeometry x="300" y="270" width="120" height="60" as="geometry" />
        </mxCell>

        <mxCell id="vault" value="&lt;b&gt;HashiCorp Vault&lt;/b&gt;&lt;br/&gt;Secrets management&lt;br/&gt;Dynamic secrets" style="rounded=1;whiteSpace=wrap;html=1;fillColor=#2196f3;fontColor=#ffffff;align=center;" vertex="1" parent="1">
          <mxGeometry x="450" y="270" width="120" height="60" as="geometry" />
        </mxCell>

        <mxCell id="okta" value="&lt;b&gt;Okta&lt;/b&gt;&lt;br/&gt;Enterprise SSO&lt;br/&gt;SAML 2.0" style="rounded=1;whiteSpace=wrap;html=1;fillColor=#2196f3;fontColor=#ffffff;align=center;" vertex="1" parent="1">
          <mxGeometry x="600" y="270" width="120" height="60" as="geometry" />
        </mxCell>

        <mxCell id="rbac" value="&lt;b&gt;RBAC&lt;/b&gt;&lt;br/&gt;Role-based access&lt;br/&gt;Fine-grained perms" style="rounded=1;whiteSpace=wrap;html=1;fillColor=#2196f3;fontColor=#ffffff;align=center;" vertex="1" parent="1">
          <mxGeometry x="750" y="270" width="120" height="60" as="geometry" />
        </mxCell>

        <!-- Network Security -->
        <mxCell id="network_layer" value="" style="rounded=1;whiteSpace=wrap;html=1;fillColor=#e8f5e9;strokeColor=#4caf50;strokeWidth=2;dashed=1;" vertex="1" parent="1">
          <mxGeometry x="100" y="390" width="700" height="200" as="geometry" />
        </mxCell>

        <mxCell id="network_label" value="&lt;b&gt;Network Security (Zero Trust Network)&lt;/b&gt;" style="text;html=1;strokeColor=none;fillColor=none;align=left;verticalAlign=top;whiteSpace=wrap;rounded=0;fontSize=14;fontStyle=1;fontColor=#FFD966;" vertex="1" parent="1">
          <mxGeometry x="110" y="400" width="350" height="20" as="geometry" />
        </mxCell>

        <mxCell id="vpc" value="&lt;b&gt;VPC&lt;/b&gt;&lt;br/&gt;Private subnets&lt;br/&gt;10.0.0.0/16" style="rounded=1;whiteSpace=wrap;html=1;fillColor=#4caf50;fontColor=#ffffff;align=center;" vertex="1" parent="1">
          <mxGeometry x="150" y="440" width="120" height="60" as="geometry" />
        </mxCell>

        <mxCell id="nacl" value="&lt;b&gt;NACLs&lt;/b&gt;&lt;br/&gt;Subnet firewall&lt;br/&gt;Stateless rules" style="rounded=1;whiteSpace=wrap;html=1;fillColor=#4caf50;fontColor=#ffffff;align=center;" vertex="1" parent="1">
          <mxGeometry x="300" y="440" width="120" height="60" as="geometry" />
        </mxCell>

        <mxCell id="sg" value="&lt;b&gt;Security Groups&lt;/b&gt;&lt;br/&gt;Instance firewall&lt;br/&gt;Stateful rules" style="rounded=1;whiteSpace=wrap;html=1;fillColor=#4caf50;fontColor=#ffffff;align=center;" vertex="1" parent="1">
          <mxGeometry x="450" y="440" width="120" height="60" as="geometry" />
        </mxCell>

        <mxCell id="privatelink" value="&lt;b&gt;PrivateLink&lt;/b&gt;&lt;br/&gt;Private endpoints&lt;br/&gt;No internet exposure" style="rounded=1;whiteSpace=wrap;html=1;fillColor=#4caf50;fontColor=#ffffff;align=center;" vertex="1" parent="1">
          <mxGeometry x="600" y="440" width="120" height="60" as="geometry" />
        </mxCell>

        <mxCell id="mtls" value="&lt;b&gt;mTLS&lt;/b&gt;&lt;br/&gt;Service mesh&lt;br/&gt;Zero trust comms" style="rounded=1;whiteSpace=wrap;html=1;fillColor=#388e3c;fontColor=#ffffff;align=center;" vertex="1" parent="1">
          <mxGeometry x="375" y="520" width="150" height="50" as="geometry" />
        </mxCell>

        <!-- Data Security -->
        <mxCell id="data_layer" value="" style="rounded=1;whiteSpace=wrap;html=1;fillColor=#f3e5f5;strokeColor=#7b1fa2;strokeWidth=2;dashed=1;" vertex="1" parent="1">
          <mxGeometry x="820" y="390" width="680" height="200" as="geometry" />
        </mxCell>

        <mxCell id="data_label" value="&lt;b&gt;Data Security &amp; Compliance&lt;/b&gt;" style="text;html=1;strokeColor=none;fillColor=none;align=left;verticalAlign=top;whiteSpace=wrap;rounded=0;fontSize=14;fontStyle=1;fontColor=#FFD966;" vertex="1" parent="1">
          <mxGeometry x="830" y="400" width="300" height="20" as="geometry" />
        </mxCell>

        <mxCell id="kms" value="&lt;b&gt;AWS KMS&lt;/b&gt;&lt;br/&gt;Encryption keys&lt;br/&gt;AES-256" style="rounded=1;whiteSpace=wrap;html=1;fillColor=#9c27b0;fontColor=#ffffff;align=center;" vertex="1" parent="1">
          <mxGeometry x="850" y="440" width="120" height="60" as="geometry" />
        </mxCell>

        <mxCell id="encrypt_rest" value="&lt;b&gt;Encryption at Rest&lt;/b&gt;&lt;br/&gt;S3, RDS, EBS&lt;br/&gt;All data encrypted" style="rounded=1;whiteSpace=wrap;html=1;fillColor=#9c27b0;fontColor=#ffffff;align=center;" vertex="1" parent="1">
          <mxGeometry x="1000" y="440" width="130" height="60" as="geometry" />
        </mxCell>

        <mxCell id="encrypt_transit" value="&lt;b&gt;Encryption in Transit&lt;/b&gt;&lt;br/&gt;TLS 1.3&lt;br/&gt;Perfect forward secrecy" style="rounded=1;whiteSpace=wrap;html=1;fillColor=#9c27b0;fontColor=#ffffff;align=center;" vertex="1" parent="1">
          <mxGeometry x="1160" y="440" width="140" height="60" as="geometry" />
        </mxCell>

        <mxCell id="pci_dss" value="&lt;b&gt;PCI DSS&lt;/b&gt;&lt;br/&gt;Level 1 compliance&lt;br/&gt;Tokenization" style="rounded=1;whiteSpace=wrap;html=1;fillColor=#7b1fa2;fontColor=#ffffff;align=center;" vertex="1" parent="1">
          <mxGeometry x="1330" y="440" width="120" height="60" as="geometry" />
        </mxCell>

        <mxCell id="dlp" value="&lt;b&gt;DLP&lt;/b&gt;&lt;br/&gt;PII detection&lt;br/&gt;Data masking&lt;br/&gt;Redaction" style="rounded=1;whiteSpace=wrap;html=1;fillColor=#ab47bc;fontColor=#ffffff;align=center;" vertex="1" parent="1">
          <mxGeometry x="1080" y="520" width="150" height="50" as="geometry" />
        </mxCell>

        <!-- Monitoring & Response -->
        <mxCell id="monitoring_layer" value="" style="rounded=1;whiteSpace=wrap;html=1;fillColor=#fff3e0;strokeColor=#ff9800;strokeWidth=2;dashed=1;" vertex="1" parent="1">
          <mxGeometry x="100" y="610" width="1400" height="150" as="geometry" />
        </mxCell>

        <mxCell id="monitoring_label" value="&lt;b&gt;Security Monitoring &amp; Incident Response&lt;/b&gt;" style="text;html=1;strokeColor=none;fillColor=none;align=left;verticalAlign=top;whiteSpace=wrap;rounded=0;fontSize=14;fontStyle=1;fontColor=#FFD966;" vertex="1" parent="1">
          <mxGeometry x="110" y="620" width="400" height="20" as="geometry" />
        </mxCell>

        <mxCell id="siem" value="&lt;b&gt;SIEM&lt;/b&gt;&lt;br/&gt;Splunk&lt;br/&gt;Real-time alerts" style="rounded=1;whiteSpace=wrap;html=1;fillColor=#ff9800;fontColor=#ffffff;align=center;" vertex="1" parent="1">
          <mxGeometry x="150" y="670" width="120" height="60" as="geometry" />
        </mxCell>

        <mxCell id="guardduty" value="&lt;b&gt;GuardDuty&lt;/b&gt;&lt;br/&gt;Threat detection&lt;br/&gt;ML-based" style="rounded=1;whiteSpace=wrap;html=1;fillColor=#ff9800;fontColor=#ffffff;align=center;" vertex="1" parent="1">
          <mxGeometry x="300" y="670" width="120" height="60" as="geometry" />
        </mxCell>

        <mxCell id="cloudtrail" value="&lt;b&gt;CloudTrail&lt;/b&gt;&lt;br/&gt;Audit logs&lt;br/&gt;API tracking" style="rounded=1;whiteSpace=wrap;html=1;fillColor=#ff9800;fontColor=#ffffff;align=center;" vertex="1" parent="1">
          <mxGeometry x="450" y="670" width="120" height="60" as="geometry" />
        </mxCell>

        <mxCell id="securityhub" value="&lt;b&gt;Security Hub&lt;/b&gt;&lt;br/&gt;Compliance checks&lt;br/&gt;CIS benchmarks" style="rounded=1;whiteSpace=wrap;html=1;fillColor=#ff9800;fontColor=#ffffff;align=center;" vertex="1" parent="1">
          <mxGeometry x="600" y="670" width="120" height="60" as="geometry" />
        </mxCell>

        <mxCell id="soar" value="&lt;b&gt;SOAR&lt;/b&gt;&lt;br/&gt;Automated response&lt;br/&gt;Playbooks" style="rounded=1;whiteSpace=wrap;html=1;fillColor=#ff9800;fontColor=#ffffff;align=center;" vertex="1" parent="1">
          <mxGeometry x="750" y="670" width="120" height="60" as="geometry" />
        </mxCell>

        <mxCell id="soc" value="&lt;b&gt;SOC 24/7&lt;/b&gt;&lt;br/&gt;Security team&lt;br/&gt;Incident response" style="rounded=1;whiteSpace=wrap;html=1;fillColor=#ff6f00;fontColor=#ffffff;align=center;" vertex="1" parent="1">
          <mxGeometry x="900" y="670" width="120" height="60" as="geometry" />
        </mxCell>

        <!-- Compliance Badges -->
        <mxCell id="compliance_badges" value="&lt;b&gt;Compliance:&lt;/b&gt; PCI DSS Level 1 | ISO 27001 | SOC 2 Type II | LGPD | GDPR" style="text;html=1;strokeColor=none;fillColor=none;align=center;verticalAlign=middle;whiteSpace=wrap;rounded=0;fontSize=12;fontStyle=0;fontColor=#FFFFFF;" vertex="1" parent="1">
          <mxGeometry x="100" y="780" width="1400" height="20" as="geometry" />
        </mxCell>

        <!-- Security Practices -->
        <mxCell id="practices" value="&lt;b&gt;Security Practices:&lt;/b&gt; DevSecOps | SAST/DAST | Penetration Testing | Security Champions | Bug Bounty Program" style="text;html=1;strokeColor=none;fillColor=none;align=center;verticalAlign=middle;whiteSpace=wrap;rounded=0;fontSize=12;fontStyle=0;fontColor=#FFFFFF;" vertex="1" parent="1">
          <mxGeometry x="100" y="810" width="1400" height="20" as="geometry" />
        </mxCell>

      </root>
    </mxGraphModel>
  </diagram>
</mxfile>